<svg xmlns="http://www.w3.org/2000/svg" viewBox="0 0 18.01 18.04"><defs><style>.cls-1{fill:#fff;}</style></defs><g id="Capa_2" data-name="Capa 2"><g id="Capa_1-2" data-name="Capa 1"><path class="cls-1" d="M9,4.37A4.63,4.63,0,1,0,13.62,9,4.62,4.62,0,0,0,9,4.37ZM9,12a3,3,0,1,1,3-3,3,3,0,0,1-3,3Z"/><circle class="cls-1" cx="13.8" cy="4.2" r="1.08"/><path class="cls-1" d="M17.53,3.11A4.62,4.62,0,0,0,14.9.47,6.81,6.81,0,0,0,12.71.05c-1,0-1.27,0-3.71,0S6.25,0,5.29.05A6.8,6.8,0,0,0,3.11.47,4.64,4.64,0,0,0,.47,3.11,6.48,6.48,0,0,0,.06,5.29C0,6.25,0,6.56,0,9s0,2.76.06,3.71A6.54,6.54,0,0,0,.47,14.9a4.62,4.62,0,0,0,2.64,2.63A6.53,6.53,0,0,0,5.29,18c1,0,1.27.06,3.71.06s2.76,0,3.71-.06a6.55,6.55,0,0,0,2.19-.42,4.6,4.6,0,0,0,2.63-2.63A6.31,6.31,0,0,0,18,12.74c0-1,.06-1.26.06-3.71S18,6.28,18,5.32A6.42,6.42,0,0,0,17.53,3.11Zm-1.22,9.53A5,5,0,0,1,16,14.33,3,3,0,0,1,14.29,16a5,5,0,0,1-1.67.31c-.95,0-1.22,0-3.65,0s-2.69,0-3.66,0A5,5,0,0,1,3.64,16a3,3,0,0,1-1.72-1.71,5.3,5.3,0,0,1-.31-1.67c0-.95-.05-1.22-.05-3.66s0-2.68.05-3.65a5.11,5.11,0,0,1,.31-1.69A3,3,0,0,1,3.64,2a5,5,0,0,1,1.67-.31c1,0,1.22-.06,3.66-.06s2.68,0,3.65.06A4.8,4.8,0,0,1,14.29,2,2.94,2.94,0,0,1,16,3.66a5,5,0,0,1,.31,1.67c.05,1,.06,1.22.06,3.65s0,2.7-.05,3.66Z"/></g></g></svg>