<svg xmlns="http://www.w3.org/2000/svg" viewBox="0 0 20.02 8.72"><defs><style>.cls-1{fill:#fff;}</style></defs><g id="Capa_2" data-name="Capa 2"><g id="Capa_1-2" data-name="Capa 1"><path class="cls-1" d="M1,4.55a.09.09,0,0,0-.08.08L.7,6.43.9,8.18A.09.09,0,0,0,1,8.27a.09.09,0,0,0,.08-.09l.22-1.75-.23-1.8A.09.09,0,0,0,1,4.55m-.75.69c-.06,0-.08,0-.09.08L0,6.43.14,7.52a.07.07,0,0,0,.07.08A.11.11,0,0,0,.3,7.51l.18-1.1L.3,5.3a.08.08,0,0,0-.08-.08m1.53-1a.1.1,0,0,0-.1.08L1.48,6.42l.18,2.06a.11.11,0,0,0,.1.1c.05,0,.09-.06.1-.1l.22-2.07L1.86,4.28s-.05-.1-.1-.1m.79-.07a.13.13,0,0,0-.12.11l-.16,2.2.17,2.13a.13.13,0,0,0,.12.11.13.13,0,0,0,.13-.12l.2-2.12-.2-2.18a.1.1,0,0,0-.11-.11l0,0Zm1,.3a.12.12,0,0,0-.13-.12.14.14,0,0,0-.14.12l-.18,2,.17,2.14a.13.13,0,0,0,.13.13.14.14,0,0,0,.13-.14l.19-2.13-.19-2ZM4.19,3A.16.16,0,0,0,4,3.13l-.18,3.3L4,8.57a.15.15,0,0,0,.15.14.15.15,0,0,0,.15-.15l.17-2.14L4.32,3.11A.15.15,0,0,0,4.17,3M5,2.2a.17.17,0,0,0-.17.16L4.65,6.42l.14,2.13A.16.16,0,0,0,5,8.72a.19.19,0,0,0,.18-.17l.16-2.13-.16-4A.19.19,0,0,0,5,2.2m.83-.38A.19.19,0,0,0,5.59,2L5.45,6.4l.14,2.1a.2.2,0,0,0,.19.19A.19.19,0,0,0,6,8.5l.17-2.1L6,2a.19.19,0,0,0-.18-.19m1,0a.19.19,0,0,0-.19-.2.2.2,0,0,0-.21.2L6.29,6.39l.12,2.08a.22.22,0,0,0,.22.2.19.19,0,0,0,.2-.2L7,6.39,6.83,1.84Zm.63-.11A.22.22,0,0,0,7.23,2L7.1,6.39l.13,2.06a.21.21,0,0,0,.21.21.22.22,0,0,0,.21-.22l.13-2.07L7.64,2a.23.23,0,0,0-.23-.23m.84.14A.24.24,0,0,0,8,2.1L7.93,6.39,8,8.45a.23.23,0,0,0,.24.23.24.24,0,0,0,.23-.24l.1-2L8.5,2.14a.24.24,0,0,0-.23-.24m1-.78a.18.18,0,0,0-.13,0,.2.2,0,0,0-.14,0,.23.23,0,0,0-.13.21v0l-.08,5,.09,2.05h0a.34.34,0,0,0,.06.15.25.25,0,0,0,.2.09.29.29,0,0,0,.17-.07.27.27,0,0,0,.08-.19v-.2l.1-1.84L9.37,1.33a.22.22,0,0,0-.11-.19v0Zm.84-.46A.15.15,0,0,0,10,.61a.27.27,0,0,0-.18.05.28.28,0,0,0-.1.2v0L9.58,6.4l.06,1,0,1a.28.28,0,0,0,.28.26.27.27,0,0,0,.27-.27l.13-2L10.24.84A.26.26,0,0,0,10.1.61m7.46,3.15a2.44,2.44,0,0,0-.95.19A4.33,4.33,0,0,0,10.71.3c-.19.07-.23.15-.24.3V8.41a.3.3,0,0,0,.27.29h6.83A2.43,2.43,0,0,0,20,6.26,2.46,2.46,0,0,0,17.57,3.8"/></g></g></svg>