<svg xmlns="http://www.w3.org/2000/svg" viewBox="0 0 19.98 19.98"><defs><style>.cls-1{fill:#fff;}</style></defs><g id="Capa_2" data-name="Capa 2"><g id="Capa_1-2" data-name="Capa 1"><path class="cls-1" d="M10,0A10,10,0,1,0,20,10,10,10,0,0,0,10,0Zm4.6,14.44a.6.6,0,0,1-.85.2c-2.35-1.45-5.3-1.75-8.8-1a.62.62,0,0,1-.3-1.2c3.8-.85,7.1-.5,9.69,1.1a.6.6,0,0,1,.26.85Zm1.2-2.75a.76.76,0,0,1-1.06.25A12.91,12.91,0,0,0,4.8,10.79a.76.76,0,1,1-.45-1.45,14.61,14.61,0,0,1,11.24,1.35.71.71,0,0,1,.2,1Zm.09-2.8C12.69,7,7.34,6.79,4.29,7.74A.92.92,0,0,1,3.75,6c3.54-1,9.39-.85,13.09,1.35a1,1,0,0,1,.34,1.3A1,1,0,0,1,15.88,8.89Z"/></g></g></svg>