<svg xmlns="http://www.w3.org/2000/svg" viewBox="0 0 19.65 15.96"><defs><style>.cls-1{fill:#fff;}</style></defs><g id="Capa_2" data-name="Capa 2"><g id="Capa_1-2" data-name="Capa 1"><path class="cls-1" d="M17.63,4a4.52,4.52,0,0,1,0,.52A11.38,11.38,0,0,1,6.19,16,11.35,11.35,0,0,1,0,14.15a7.78,7.78,0,0,0,1,0,8,8,0,0,0,5-1.72A4,4,0,0,1,2.21,9.69,4.77,4.77,0,0,0,3,9.75,4.17,4.17,0,0,0,4,9.61,4,4,0,0,1,.8,5.66v0a4,4,0,0,0,1.82.51A4,4,0,0,1,.82,2.77a4,4,0,0,1,.55-2A11.45,11.45,0,0,0,9.68,5a4,4,0,0,1,6.87-3.68A7.79,7.79,0,0,0,19.1.3a4,4,0,0,1-1.77,2.22,7.89,7.89,0,0,0,2.32-.63A8.71,8.71,0,0,1,17.63,4Z"/></g></g></svg>