<svg xmlns="http://www.w3.org/2000/svg" viewBox="0 0 20.01 14.01"><defs><style>.cls-1{fill:#fff;}</style></defs><g id="Capa_2" data-name="Capa 2"><g id="Capa_1-2" data-name="Capa 1"><path class="cls-1" d="M19.61,2.2A2.52,2.52,0,0,0,17.85.44C16.28,0,10,0,10,0S3.75,0,2.18.4A2.56,2.56,0,0,0,.42,2.18,26,26,0,0,0,0,7a26.43,26.43,0,0,0,.41,4.81,2.52,2.52,0,0,0,1.76,1.77C3.75,14,10,14,10,14s6.26,0,7.83-.4a2.53,2.53,0,0,0,1.77-1.76A26.63,26.63,0,0,0,20,7,25.49,25.49,0,0,0,19.61,2.2ZM8,10V4l5.2,3Z"/></g></g></svg>